<?xml version="1.0" encoding="utf-8"?>
<!DOCTYPE svg PUBLIC "-//W3C//DTD SVG 1.1//EN" "http://www.w3.org/Graphics/SVG/1.1/DTD/svg11.dtd">
<svg version="1.1" id="Layer_1" xmlns="http://www.w3.org/2000/svg" xmlns:xlink="http://www.w3.org/1999/xlink" x="0px" y="0px"
	 viewBox="0 0 1780.8256 2283.2476" enable-background="new 0 0 1780.8256 2283.2476" xml:space="preserve">
<g>
	<path d="M330.36,1033.0106c-3.6501-0.201-7.3001-0.5757-10.9503-0.5776c-65.326-0.0355-130.6521-0.0256-195.9781-0.0254
		c-0.9999,0-1.9999-0.007-2.9996,0.0038c-10.9939,0.1174-11.077,0.1163-11.3206,11.1519
		c-1.0226,46.3149-1.9693,92.6317-3.002,138.9465c-0.1633,7.3239-0.3428,14.6678-1.0361,21.953
		c-0.5827,6.1234,1.5372,10.6985,5.3767,15.3804c56.6362,69.0652,113.1157,138.2588,169.6283,207.4254
		c114.0796,139.6233,228.127,279.2729,342.3433,418.7845c4.5562,5.5651,6.3235,11.0723,6.1934,18.1343
		c-0.4178,22.6576-0.6678,45.3325-0.2686,67.9884c1.4207,80.6364,0.4299,161.2769,0.7614,241.9143
		c0.0082,1.9988,0.0505,3.999,0.1485,5.9951c0.1567,3.1919,1.9058,4.8296,5.0695,4.9243c2.6643,0.0793,5.3308,0.1189,7.9963,0.1189
		c266.9702,0.0051,533.9404,0.0054,800.9106,0.0056c0.6666,0,1.3333,0.0042,1.9999-0.0022
		c10.9513-0.1016,11.0306-0.1021,11.0352-11.1833c0.0269-67.3259,0.0104-134.6515,0.019-201.9774
		c0.0017-13.561,0.0231-13.578,13.6863-13.5822c33.3296-0.0103,66.6593-0.025,99.9889,0.0284
		c3.6437,0.0059,7.2866,0.4449,10.9299,0.683l-0.2638-0.2743c0.0496,70.3113,0.1062,140.6224,0.1453,210.9337
		c0.0184,32.9902,0.0044,65.9805,0.0009,98.9707c-0.0002,2.6658-0.0995,5.333-0.0338,7.9966
		c0.1155,4.6814-2.243,6.6309-6.7645,6.4861c-2.6624-0.0852-5.3308,0.0322-7.9965,0.0322
		c-340.2322,0.0024-680.4642,0.0032-1020.6964,0c-14.2994,0-14.3168-0.0166-14.3185-14.0376
		c-0.007-59.9822-1.4429-120.0085,0.4093-179.9336c1.7908-57.9423,0.2531-115.8534,1.5859-173.7595
		c0.1868-8.1202-1.899-14.3882-7.1331-20.8069C352.522,1682.1759,179.4362,1469.4656,6.1419,1256.9254
		c-5.0582-6.2037-6.9935-12.0031-5.8008-19.8933c2.6954-17.8297,2.5121-35.8716,2.5136-53.8694
		c0.0064-77.9768,0.0033-155.9536,0.0039-233.9305c0-2.6659-0.0337-5.3324,0.0106-7.9976
		c0.1587-9.5457,0.4767-9.8521,10.3903-10.129c1.665-0.0466,3.3322-0.0174,4.9983-0.0175
		c99.637-0.0006,199.274,0.0018,298.9111-0.0038c14.9803-0.0009,13.8973-0.6287,13.9065,14.3279
		c0.0156,25.3258,0.0159,50.6516-0.0049,75.9774c-0.0033,3.9859,0.3235,8.0123-1.0013,11.8923L330.36,1033.0106z"/>
	<path d="M736.3931,118.8771c-3.9841,0.1845-7.9681,0.5274-11.9523,0.5297c-59.9892,0.0344-119.9785,0.0246-179.9677,0.0235
		c-14.6567-0.0003-13.1885-0.4563-13.1909,12.8026c-0.0413,232.2915-0.0886,464.583-0.0671,696.8745
		c0.0181,195.2972,0.1178,390.5944,0.1969,585.8915c0.0088,21.5779-0.1949,18.5195-18.2838,18.5525
		c-28.9826,0.0527-57.9688,0.4346-86.9484-0.6096c-10.2794-0.3705-10.2672,1.0042-10.2635-10.4921
		c0.0237-74.6532,0.0511-149.3064,0.0739-223.9596c0.1089-356.269,0.208-712.538,0.3554-1068.8069
		c0.0063-15.1172-1.971-13.2163,13.2239-13.2671c30.6608-0.1025,61.3223-0.0086,91.9834-0.0448
		c9.6437-0.0114,9.6982-0.083,9.7047-10.0245c0.0204-31.3277-0.0063-62.6554-0.0068-93.983c0-2.6655,0.0341-5.3315,0.0984-7.9962
		c0.0691-2.8588,1.7017-4.1643,4.4327-4.2477c2.3308-0.0711,4.6636-0.1131,6.9955-0.1133
		c60.989-0.0059,121.9781-0.0047,182.9671-0.0046c0.6666,0,1.3332-0.0062,1.9996,0.0036c9.3729,0.1385,9.3743,0.139,9.5154,9.2894
		c0.0154,0.9996,0.0045,1.9996,0.0046,2.9994c0.0031,31.661,0.0413,63.322-0.0356,94.9828
		c-0.0096,3.9372,0.8416,8.0108-1.0614,11.8004L736.3931,118.8771z"/>
	<path d="M736.1674,119.0775c29.9916,0.0489,59.9833,0.0966,89.9749,0.1487c2.3326,0.004,4.6694,0.1376,6.9968,0.0371
		c4.7198-0.2037,6.617,2.1533,6.4794,6.6711c-0.0913,2.9959,0.0193,5.9976,0.0194,8.9967
		c0.0032,118.6363,0.0002,237.2725,0.0104,355.9088c0.0012,14.4453-0.928,13.3781,13.6688,13.3821
		c61.6509,0.0169,123.3017,0.0073,184.9525,0.0075c2.3328,0,4.6656-0.0197,6.9982,0.0057
		c10.5931,0.1155,10.709,0.1338,10.7325,10.4941c0.0604,26.6597,0.0029,53.3196,0.0444,79.9794
		c0.0061,3.978-0.4625,8.0101,0.832,11.9114c-0.0083,0.0065,0.2627-0.274,0.2627-0.274
		c-67.3281,0.0525-134.6564,0.0707-201.9844,0.1814c-17.035,0.028-15.4671-1.9216-15.4714,15.6042
		c-0.0329,135.9918-0.0081,271.9835-0.0328,407.9753c-0.0027,14.7662,1.1163,13.0276-12.6305,13.0688
		c-26.3315,0.0792-52.6635,0.0469-78.9951,0.0088c-10.2241-0.0148-10.228-0.079-10.3319-10.609
		c-0.023-2.3331-0.0073-4.6664-0.0073-6.9996c0.0001-297.9819,0.0046-595.9639-0.0424-893.9458
		c-0.0007-4.2632,0.9808-8.6892-1.243-12.759C736.3931,118.8771,736.1674,119.0775,736.1674,119.0775z"/>
	<path d="M1682.4257,930.9818c27.9847,0.0352,55.9695,0.0693,83.9542,0.1071c2.6652,0.0036,5.3335,0.1216,7.9946,0.0262
		c4.7386-0.1699,6.6051,2.2062,6.4127,6.7366c-0.1129,2.6599,0.0135,5.3293,0.0135,7.9945
		c0.0017,231.8764,0.006,463.7526-0.0085,695.629c-0.001,15.6866,1.4795,15.158-15.2164,15.1626
		c-27.6517,0.0074-55.3035,0.0422-82.9568,0.0642c-0.0015-0.0015,0.282,0.2677,0.282,0.2677
		c-0.0054-237.4294-0.0098-474.8589-0.0242-712.2884c-0.0004-4.6604-0.1206-9.3209-0.1832-13.9827
		C1682.6953,930.6971,1682.4257,930.9818,1682.4257,930.9818z"/>
	<path d="M1356.7408,704.6571c-21.3206-0.1084-42.641-0.2845-63.9617-0.3107c-40.6495-0.0499-81.299-0.0153-121.9485-0.0121
		c-2.6654,0.0002-5.3417-0.1174-7.9939,0.0778c-6.4966,0.4781-7.3306,1.3191-7.7283,7.8248
		c-0.1826,2.9883-0.0696,5.9955-0.0696,8.9941c-0.0023,97.9586-0.0631,195.9171,0.0481,293.8756
		c0.0229,20.2709-1.78,17.1988-17.7717,17.2733c-22.9897,0.1069-45.9803,0.0553-68.9706,0.0139
		c-11.9374-0.0215-12.282-0.3265-12.285-12.3631c-0.0271-105.622-0.017-211.244-0.0176-316.866
		c-0.0001-28.9877-0.0134-57.9755,0.0198-86.9632c0.0038-3.3046-0.4391-6.6869,1.0701-9.8488
		c0.0076-0.0065-0.2634,0.274-0.2551,0.2675c96.2053-0.0435,192.4025-0.0978,288.5996-0.0919
		c10.3322,0.0006,11.1039,0.7077,11.1196,10.5477c0.0471,29.2903-0.0757,58.5809-0.1299,87.8692
		C1356.4684,704.9431,1356.7408,704.6571,1356.7408,704.6571z"/>
	<path d="M1580.5868,806.7736c-38.3295-0.0497-76.6589-0.1454-114.9884-0.1152c-8.9701,0.007-9.239,0.355-9.2672,9.9297
		c-0.0747,25.3313-0.0299,50.663-0.0303,75.9944c-0.0007,73.9947,0,147.9894-0.0005,221.984c0,2.6665,0.0627,5.3351-0.0226,7.999
		c-0.2595,8.1047-0.5061,8.5363-8.5771,8.5825c-21.3311,0.1222-42.6633,0.0497-63.9951,0.0518
		c-5.9995,0.0006-12.0026,0.1169-17.9978-0.0447c-7.8799-0.2123-8.6136-0.9955-9.0374-8.5344
		c-0.0746-1.3295-0.0372-2.6659-0.0372-3.999c0.0048-136.6568,0.0106-273.3136,0.0206-409.9704
		c0.0001-1.3329,0.0593-2.6657,0.089-3.9965c-0.002,0.0021-0.2744,0.2881-0.2766,0.2902c3.6478-0.2045,7.2976-0.5894,10.9478-0.5914
		c66.9695-0.036,133.939-0.0263,200.9084-0.0249c1.6659,0.0001,3.3362-0.0603,4.9967,0.0388
		c6.6128,0.394,7.3271,0.8776,7.3868,7.755c0.1589,18.3237,0.1249,36.6497,0.05,54.9744
		c-0.0544,13.3179-0.2964,26.6349-0.4547,39.9524L1580.5868,806.7736z"/>
	<path d="M1580.8917,1959.1003c-0.0331-97.1014-0.0669-194.2029-0.0935-291.3043c-0.0005-1.6616,0.059-3.3246,0.1353-4.9847
		c0.1813-3.9447,2.0647-6.1543,6.2112-6.1168c2.6594,0.024,5.3197-0.0853,7.9795-0.0754
		c29.2579,0.1091,58.5159,0.2301,87.7754,0.3494c0.0015,0.0012-0.282-0.2679-0.2804-0.2665
		c0.0852,2.9955,0.2417,5.9896,0.2421,8.9836c0.0105,92.9052,0.0121,185.8104-0.0029,278.7156
		c-0.0023,14.2076,1.15,13.9531-14.3517,13.9998c-29.2952,0.0881-58.59,0.2719-87.8818,0.4205
		C1580.6279,1958.826,1580.8917,1959.1003,1580.8917,1959.1003z"/>
	<path d="M1580.3013,807.0494c31.6066-0.1352,63.2131-0.3583,94.8197-0.3387c7.1532,0.0045,7.6879,0.847,7.7076,9.4832
		c0.0756,32.946,0.0536,65.8923,0.0171,98.8385c-0.006,5.3156-0.2715,10.631-0.4185,15.948
		c-0.0016,0.0014,0.2681-0.2833,0.2662-0.2819c-31.1902,0.1252-62.3785,0.3209-93.567,0.3232
		c-7.9042,0.0005-8.2938-0.5786-8.311-9.7726c-0.0636-33.8493-0.0209-67.6988-0.0374-101.5482
		c-0.0022-4.3122-0.118-8.6243-0.1863-12.9319C1580.5868,806.7736,1580.3013,807.0494,1580.3013,807.0494z"/>
	<path d="M330.0692,1033.282c1.9706-0.2866,3.9405-0.8173,5.9118-0.8228c22.6632-0.0635,45.3271-0.1279,67.9898-0.0092
		c8.2125,0.043,8.6289,0.4722,8.6574,8.4364c0.0978,27.329,0.092,54.6588,0.0063,81.9879c-0.0254,8.075-0.2056,8.2446-8.6201,8.2843
		c-21.3298,0.1005-42.6608,0.1073-63.9905-0.0032c-8.496-0.0439-8.8637-0.441-8.894-9.2583
		c-0.0891-25.9958-0.0173-51.9924-0.0577-77.9886c-0.0057-3.6465,0.4446-7.34-0.7001-10.9104
		C330.36,1033.0106,330.0692,1033.282,330.0692,1033.282z"/>
</g>
</svg>
